<?xml version="1.0" encoding="UTF-8"?>
<svg width="150px" height="150px" viewBox="0 0 150 150" version="1.1" xmlns="http://www.w3.org/2000/svg" xmlns:xlink="http://www.w3.org/1999/xlink">
    <!-- Generator: sketchtool 54.1 (76490) - https://sketchapp.com -->
    <title>283B9897-B42D-4E37-BD37-71394ED9B8A3</title>
    <desc>Created with sketchtool.</desc>
    <defs>
        <linearGradient x1="140.749959%" y1="50%" x2="-110.360898%" y2="50%" id="linearGradient-1">
            <stop stop-color="#00FCE5" offset="0%"></stop>
            <stop stop-color="#00E3CE" offset="50.7970861%"></stop>
            <stop stop-color="#0A635B" offset="100%"></stop>
        </linearGradient>
        <linearGradient x1="73.7551645%" y1="73.4047619%" x2="-3.5213445%" y2="-9.26190476%" id="linearGradient-2">
            <stop stop-color="#007D71" offset="0%"></stop>
            <stop stop-color="#184962" offset="55.5954392%"></stop>
            <stop stop-color="#021E2F" offset="100%"></stop>
        </linearGradient>
        <linearGradient x1="69.9609405%" y1="73.4047619%" x2="5.02719529%" y2="-9.26190476%" id="linearGradient-3">
            <stop stop-color="#007D71" offset="0%"></stop>
            <stop stop-color="#184962" offset="55.5954392%"></stop>
            <stop stop-color="#021E2F" offset="100%"></stop>
        </linearGradient>
        <linearGradient x1="49.9999999%" y1="84.6666667%" x2="49.9999999%" y2="-133.555556%" id="linearGradient-4">
            <stop stop-color="#FFFFFF" offset="0%"></stop>
            <stop stop-color="#CCE2E6" offset="52%"></stop>
            <stop stop-color="#8FA1BB" offset="100%"></stop>
        </linearGradient>
        <linearGradient x1="-28.3087599%" y1="71.456213%" x2="-36.4663092%" y2="39.308187%" id="linearGradient-5">
            <stop stop-color="#63737E" offset="0%"></stop>
            <stop stop-color="#E8ECED" offset="100%"></stop>
        </linearGradient>
    </defs>
    <g id="Templates" stroke="none" stroke-width="1" fill="none" fill-rule="evenodd">
        <g id="SG_licensing" transform="translate(-435.000000, -2167.000000)" fill-rule="nonzero">
            <g id="strip-/-split-screen-/-mirror-/-dark-right-/-desktop" transform="translate(0.000000, 2078.000000)">
                <g id="Group-2" transform="translate(135.000000, 89.000000)">
                    <g id="Stacked-Group-2">
                        <g id="icon-placeholder" transform="translate(300.000000, 0.000000)">
                            <g id="split-screen-illustration">
                                <g id="illustration-/-left">
                                    <circle id="Oval" fill="#FFFFFF" cx="75" cy="75" r="75"></circle>
                                    <g id="book,-info,-information,-education,-notebook,-textbook" transform="translate(39.000000, 33.000000)">
                                        <path d="M10.98,1.77635684e-15 L66.78,1.77635684e-15 C68.1644301,8.8817842e-16 69.4921575,0.549962707 70.4710974,1.5289026 C71.4500373,2.5078425 72,3.83556992 72,5.22 L72,78.78 C72,81.6629264 69.6629264,84 66.78,84 L10.98,84 C4.91591345,84 0,79.0840866 0,73.02 L0,11.02 C-0.0106339555,8.1009986 1.14148798,5.29790557 3.20179112,3.23009677 C5.26209426,1.16228798 8.06097923,-1.93697465e-05 10.98,1.77635684e-15 Z" id="Path" fill="url(#linearGradient-1)"></path>
                                        <path d="M66.78,8.8817842e-16 L10.98,8.8817842e-16 C4.91591345,8.8817842e-16 0,4.91591345 0,10.98 L0,72.98 C-0.0106339555,75.8990014 1.14148798,78.7020944 3.20179112,80.7699032 C5.26209426,82.837712 8.06097923,84.0000194 10.98,84 L18,84 L18,9 L72,9 L72,5.22 C72,3.83556992 71.4500373,2.5078425 70.4710974,1.5289026 C69.4921575,0.549962707 68.1644301,0 66.78,8.8817842e-16 Z" id="Path" fill="url(#linearGradient-2)"></path>
                                        <path d="M72,9 L72,5.22 C72,3.83556992 71.4500373,2.5078425 70.4710974,1.5289026 C69.4921575,0.549962707 68.1644301,0 66.78,0 L16.98,0 C10.9159134,8.8817842e-16 6,4.91591345 6,10.98 L6,72.98 C5.98936604,75.8990014 7.14148798,78.7020944 9.20179112,80.7699032 C11.2620943,82.837712 14.0609792,84.0000194 16.98,84 L18,84 L18,9 L72,9 Z" id="Path" fill="url(#linearGradient-3)"></path>
                                        <path d="M72.0000001,6 L16.5000001,6 C14.0147187,6.00000005 12.0000001,8.01471866 12.0000001,10.5 C12.0000001,12.9852813 14.0147187,14.9999999 16.5000001,15 L72.0000001,15 L72.0000001,6 Z" id="Path" fill="url(#linearGradient-4)"></path>
                                        <circle id="Oval" fill="#E8ECED" cx="45.08" cy="48.08" r="18.08"></circle>
                                        <path d="M18,6 L16.5,6 C15.1406541,5.96095654 13.8377657,6.54423155 12.9614416,7.58413616 C12.0851175,8.62404077 11.7311171,10.0069405 12,11.34 C12,11.34 12,11.52 12,11.62 C12.0440822,11.7829365 12.0975038,11.9432014 12.16,12.1 L12.3,12.44 L12.48,12.78 L12.72,13.16 L12.86,13.34 C13.7064363,14.3972191 14.9856959,15.0147927 16.34,15.02 L18,15.02 L18,9.28 C18.4802028,9.10119154 18.9876278,9.00647221 19.5,9 L72,9 L72,6 L18,6 Z" id="Path" fill="url(#linearGradient-5)"></path>
                                    </g>
                                </g>
                            </g>
                        </g>
                    </g>
                </g>
            </g>
        </g>
    </g>
</svg>