<?xml version="1.0" encoding="UTF-8"?>
<svg width="100px" height="100px" viewBox="0 0 100 100" version="1.1" xmlns="http://www.w3.org/2000/svg" xmlns:xlink="http://www.w3.org/1999/xlink">
    <!-- Generator: sketchtool 54.1 (76490) - https://sketchapp.com -->
    <title>3A101631-BA13-4450-9D3D-EE1375BEAE00</title>
    <desc>Created with sketchtool.</desc>
    <defs>
        <linearGradient x1="-37.1430985%" y1="-12.3282392%" x2="186.16446%" y2="139.48626%" id="linearGradient-1">
            <stop stop-color="#00FCE5" offset="0%"></stop>
            <stop stop-color="#00E3CE" offset="41.1836135%"></stop>
            <stop stop-color="#00B0A0" offset="100%"></stop>
        </linearGradient>
        <linearGradient x1="118.706803%" y1="111.46588%" x2="-79.6835084%" y2="-79.3599544%" id="linearGradient-2">
            <stop stop-color="#184962" offset="0%"></stop>
            <stop stop-color="#246E94" offset="52.8810936%"></stop>
            <stop stop-color="#246E94" offset="100%"></stop>
        </linearGradient>
    </defs>
    <g id="Templates" stroke="none" stroke-width="1" fill="none" fill-rule="evenodd">
        <g id="SG_home" transform="translate(-813.000000, -4083.000000)" fill-rule="nonzero">
            <g id="organisms-/-icon-group-/-desktop" transform="translate(0.000000, 3492.000000)">
                <g id="organisms-/-icon-group-/-table" transform="translate(149.000000, 250.000000)">
                    <g id="category-1-copy-5" transform="translate(571.000000, 286.000000)">
                        <g id="Stacked-Group" transform="translate(75.000000, 55.000000)">
                            <g id="image-/-icon-/-compliance-/-desktop" transform="translate(18.000000, 0.000000)">
                                <circle id="avatar" fill="url(#linearGradient-1)" cx="50" cy="50" r="50"></circle>
                                <g id="icon-/-lock" transform="translate(25.000000, 25.000000)" fill="url(#linearGradient-2)">
                                    <g id="check-network">
                                        <path d="M32.5,42.5 C32.5,41.1192881 31.3807119,40 30,40 L27.5,40 L27.5,35 L37.5,35 C40.2614237,35 42.5,32.7614237 42.5,30 L42.5,5 C42.5,2.23857625 40.2614237,0 37.5,0 L12.5,0 C9.73857625,0 7.5,2.23857625 7.5,5 L7.5,30 C7.5,32.7614237 9.73857625,35 12.5,35 L22.5,35 L22.5,40 L20,40 C18.6192881,40 17.5,41.1192881 17.5,42.5 L0,42.5 L0,47.5 L17.5,47.5 C17.5,48.8807119 18.6192881,50 20,50 L30,50 C31.3807119,50 32.5,48.8807119 32.5,47.5 L50,47.5 L50,42.5 L32.5,42.5 L32.5,42.5 Z M15.625,17.7 L18.525,14.8 L22.5,18.75 L31.475,9.8 L34.375,13.325 L22.5,25.2 L15.625,17.7 Z" id="Shape"></path>
                                    </g>
                                </g>
                            </g>
                        </g>
                    </g>
                </g>
            </g>
        </g>
    </g>
</svg>