<svg xmlns="http://www.w3.org/2000/svg" width="150" height="150"><defs><linearGradient id="a" x1="44.29%" x2="166.733%" y1="50%" y2="50%"><stop offset="0%" stop-color="#F5F7F7"/><stop offset="50.858%" stop-color="#E8ECED"/><stop offset="100%" stop-color="#8FA1BB"/></linearGradient><linearGradient id="b" x1="49.951%" x2="49.951%" y1="159.259%" y2="-166.741%"><stop offset="0%" stop-color="#184962"/><stop offset="56%" stop-color="#184962"/><stop offset="100%" stop-color="#63737E"/></linearGradient><linearGradient id="c" x1="24.308%" x2="50.593%" y1="131.438%" y2="37.845%"><stop offset="0%" stop-color="#63737E"/><stop offset="56%" stop-color="#184962"/><stop offset="100%" stop-color="#06131A"/></linearGradient><linearGradient id="d" x1="49.909%" x2="49.909%" y1="117.788%" y2="-28.788%"><stop offset="0%" stop-color="#00FCE5"/><stop offset="49%" stop-color="#00C9B7"/><stop offset="100%" stop-color="#0A635B"/></linearGradient><linearGradient id="e" x1="50.347%" x2="49.653%" y1="0%" y2="100%"><stop offset="0%" stop-color="#246E94"/><stop offset="100%" stop-color="#184962"/></linearGradient><linearGradient id="f" x1="596.333%" x2="-337.333%" y1="49.966%" y2="49.966%"><stop offset="0%" stop-color="#E8ECED"/><stop offset="52%" stop-color="#E8ECED"/><stop offset="100%" stop-color="#8FA1BB"/></linearGradient><linearGradient id="g" x1="49.909%" x2="49.909%" y1="243.182%" y2="-60.939%"><stop offset="0%" stop-color="#00FCE5"/><stop offset="49%" stop-color="#00C9B7"/><stop offset="100%" stop-color="#0A635B"/></linearGradient></defs><g fill="none" fill-rule="nonzero" transform="translate(33 37)"><circle cx="69" cy="36.5" r="15.06" fill="url(#a)"/><path fill="url(#b)" d="m8.94 48.5 5.6 25.18a2.34 2.34 0 0 0 2.28 1.82h2.58a1.56 1.56 0 0 0 1.56-1.56v-10.7a6.26 6.26 0 0 1 2-4.6l6.24-5.76"/><path fill="url(#c)" d="M21.88 60a6.2 6.2 0 0 1 1.06-1.34l6.24-5.76-20.24-4.4 1.84 8.28a20 20 0 0 1 4.22.9z"/><path fill="url(#d)" d="M8.7 21.5H4.14A4.2 4.2 0 0 0 0 25.7v21.6a4.2 4.2 0 0 0 4.2 4.2h4.5a20 20 0 0 1 6.3 1.02L66 69.5v-66L15 20.48a20 20 0 0 1-6.3 1.02"/><rect width="6" height="72" x="65.94" y=".5" fill="url(#e)" rx="2.76"/><path fill="url(#f)" d="M72 51.28a15 15 0 0 0 6-2.66V24.4a15 15 0 0 0-6-2.66z"/><path fill="url(#g)" d="M66 3.5h-.2L47.8 32a9.7 9.7 0 0 1-8.2 4.52H0v10.8a4.2 4.2 0 0 0 4.2 4.2h4.5a20 20 0 0 1 6.3 1.02L66 69.5z"/></g></svg>