<svg xmlns="http://www.w3.org/2000/svg" xml:space="preserve" viewBox="0 0 145 145"><g><linearGradient id="a" x1="-880.883" x2="-879.883" y1="609.779" y2="608.779" gradientTransform="matrix(145 0 0 -145 127728 88418)" gradientUnits="userSpaceOnUse"><stop offset="0" style="stop-color:#00fce5"/><stop offset="1" style="stop-color:#00e3ce"/></linearGradient><circle cx="72.5" cy="72.5" r="72.5" style="fill:url(#a)"/><circle cx="72.5" cy="72.5" r="67.5" style="fill:#fff"/><g transform="translate(44 26.815)"><linearGradient id="b" x1="-919.29" x2="-918.404" y1="580.352" y2="580.051" gradientTransform="matrix(74.6437 0 0 -82.472 68618.664 47910.531)" gradientUnits="userSpaceOnUse"><stop offset="0" style="stop-color:#00e3ce"/><stop offset="1" style="stop-color:#00c9b7"/></linearGradient><path d="M34 86.2c8.8 0 16.1 2.4 21.1 7h13.1c-1.1-.9-2.2-2.1-3.1-3.6-1.5-2.3-2.6-5.2-2.9-8.7v-8.8c-2.4-3.7-6.1-6.6-11.6-8.8l-3.9-1.6c-3.1-1.3-6.7-2.9-6.7-5.6 0-2.4 2.5-3.3 5.5-3.3 6.9 0 12.5 3 16.6 9.1V43.3q0-2.4-.3-4.5C59.9 25.3 49.3 18.1 34 18.1 17.1 18.2 6.2 27.2 6.2 44v36.9c-.3 6-3.1 10-6 12.3h13.2c4.8-4.5 11.9-7 20.6-7" style="fill:url(#b)"/><linearGradient id="c" x1="-918.836" x2="-917.951" y1="579.369" y2="579.068" gradientTransform="matrix(72.0476 0 0 -69.884 66189.313 40498.082)" gradientUnits="userSpaceOnUse"><stop offset="0" style="stop-color:#00e3ce"/><stop offset="1" style="stop-color:#00c9b7"/></linearGradient><path d="M54.5-7.5c-2.2-1.6-12.8-5.4-24.2-4.8-32 1.5-45.5 28.7-40.4 47.7 1.7 6.3 4.5 11.7 8.2 15.9-.2-.7-.4-1.5-.5-2.2-2.4-15.2 3.5-26.9 14.2-34.6 12.4-9 30.2-6.1 33.5-4.9z" style="fill:url(#c)"/></g></g></svg>